<mxfile host="Electron" agent="Mozilla/5.0 (Windows NT 10.0; Win64; x64) AppleWebKit/537.36 (KHTML, like Gecko) draw.io/26.2.2 Chrome/134.0.6998.178 Electron/35.1.2 Safari/537.36" version="26.2.2">
  <diagram name="第 1 页" id="wuqaHu9zv3Dl0cAsJfMw">
    <mxGraphModel dx="3716" dy="1116" grid="0" gridSize="10" guides="0" tooltips="1" connect="1" arrows="1" fold="1" page="0" pageScale="1" pageWidth="1100" pageHeight="850" math="0" shadow="0">
      <root>
        <mxCell id="0" />
        <mxCell id="1" parent="0" />
        <mxCell id="__aHNvYmwDtLGaGKwfHc-245" value="" style="group;movable=0;resizable=0;rotatable=0;deletable=0;editable=0;locked=1;connectable=0;" parent="1" vertex="1" connectable="0">
          <mxGeometry x="821" y="857" width="302" height="339" as="geometry" />
        </mxCell>
        <mxCell id="__aHNvYmwDtLGaGKwfHc-246" value="" style="rounded=0;whiteSpace=wrap;html=1;dashed=1;movable=0;resizable=0;rotatable=0;deletable=0;editable=0;locked=1;connectable=0;" parent="__aHNvYmwDtLGaGKwfHc-245" vertex="1">
          <mxGeometry width="302" height="339" as="geometry" />
        </mxCell>
        <mxCell id="__aHNvYmwDtLGaGKwfHc-247" value="&lt;font face=&quot;Arial&quot;&gt;Head&lt;/font&gt;" style="text;html=1;align=center;verticalAlign=middle;whiteSpace=wrap;rounded=0;movable=0;resizable=0;rotatable=0;deletable=0;editable=0;locked=1;connectable=0;fontStyle=1;fontSize=18;" parent="__aHNvYmwDtLGaGKwfHc-245" vertex="1">
          <mxGeometry x="2.626086956521739" y="4.188851963746223" width="72.40496894409938" height="30.6329003021148" as="geometry" />
        </mxCell>
        <mxCell id="__aHNvYmwDtLGaGKwfHc-244" value="z" style="group;movable=0;resizable=0;rotatable=0;deletable=0;editable=0;locked=1;connectable=0;" parent="1" vertex="1" connectable="0">
          <mxGeometry x="162" y="861" width="639" height="334" as="geometry" />
        </mxCell>
        <mxCell id="__aHNvYmwDtLGaGKwfHc-242" value="" style="rounded=0;whiteSpace=wrap;html=1;dashed=1;movable=0;resizable=0;rotatable=0;deletable=0;editable=0;locked=1;connectable=0;" parent="__aHNvYmwDtLGaGKwfHc-244" vertex="1">
          <mxGeometry width="639.0000000000001" height="334" as="geometry" />
        </mxCell>
        <mxCell id="__aHNvYmwDtLGaGKwfHc-243" value="&lt;font face=&quot;Arial&quot;&gt;Backbone&lt;/font&gt;" style="text;html=1;align=center;verticalAlign=middle;whiteSpace=wrap;rounded=0;movable=0;resizable=0;rotatable=0;deletable=0;editable=0;locked=1;connectable=0;fontStyle=1;fontSize=18;" parent="__aHNvYmwDtLGaGKwfHc-244" vertex="1">
          <mxGeometry x="5.543375394321766" y="4.12" width="104.31624605678233" height="26.88" as="geometry" />
        </mxCell>
        <mxCell id="__aHNvYmwDtLGaGKwfHc-275" value="" style="group;movable=0;resizable=0;rotatable=0;deletable=0;editable=0;locked=1;connectable=0;" parent="1" vertex="1" connectable="0">
          <mxGeometry x="1012" y="961" width="59" height="170" as="geometry" />
        </mxCell>
        <mxCell id="__aHNvYmwDtLGaGKwfHc-276" value="" style="shape=cube;whiteSpace=wrap;html=1;boundedLbl=1;backgroundOutline=1;darkOpacity=0.05;darkOpacity2=0.1;size=10;fillColor=#d5e8d4;strokeColor=#82b366;movable=0;resizable=0;rotatable=0;deletable=0;editable=0;locked=1;connectable=0;" parent="__aHNvYmwDtLGaGKwfHc-275" vertex="1">
          <mxGeometry width="59" height="170" as="geometry" />
        </mxCell>
        <mxCell id="__aHNvYmwDtLGaGKwfHc-277" value="&lt;span style=&quot;font-family: Arial; font-size: 18px;&quot;&gt;CBAM (C=512)&lt;/span&gt;" style="text;html=1;align=center;verticalAlign=middle;whiteSpace=wrap;rounded=0;rotation=-90;movable=0;resizable=0;rotatable=0;deletable=0;editable=0;locked=1;connectable=0;" parent="__aHNvYmwDtLGaGKwfHc-275" vertex="1">
          <mxGeometry x="-47" y="65" width="160" height="50" as="geometry" />
        </mxCell>
        <mxCell id="__aHNvYmwDtLGaGKwfHc-272" value="" style="group;movable=0;resizable=0;rotatable=0;deletable=0;editable=0;locked=1;connectable=0;" parent="1" vertex="1" connectable="0">
          <mxGeometry x="945" y="932" width="71" height="231" as="geometry" />
        </mxCell>
        <mxCell id="__aHNvYmwDtLGaGKwfHc-273" value="" style="shape=cube;whiteSpace=wrap;html=1;boundedLbl=1;backgroundOutline=1;darkOpacity=0.05;darkOpacity2=0.1;fillColor=#dae8fc;strokeColor=#6c8ebf;movable=0;resizable=0;rotatable=0;deletable=0;editable=0;locked=1;connectable=0;" parent="__aHNvYmwDtLGaGKwfHc-272" vertex="1">
          <mxGeometry width="70" height="230" as="geometry" />
        </mxCell>
        <mxCell id="__aHNvYmwDtLGaGKwfHc-274" value="&lt;span style=&quot;font-family: Arial; font-size: 18px;&quot;&gt;GhostConv&lt;/span&gt;&lt;br style=&quot;padding: 0px; margin: 0px; font-family: Arial; font-size: 18px;&quot;&gt;&lt;span style=&quot;font-family: Arial; font-size: 18px;&quot;&gt;(1024×0.5=512, k=3, s=2)&lt;/span&gt;" style="text;html=1;align=center;verticalAlign=middle;whiteSpace=wrap;rounded=0;rotation=-90;movable=0;resizable=0;rotatable=0;deletable=0;editable=0;locked=1;connectable=0;" parent="__aHNvYmwDtLGaGKwfHc-272" vertex="1">
          <mxGeometry x="-59" y="101" width="210" height="50" as="geometry" />
        </mxCell>
        <mxCell id="__aHNvYmwDtLGaGKwfHc-266" value="" style="group;movable=0;resizable=0;rotatable=0;deletable=0;editable=0;locked=1;connectable=0;" parent="1" vertex="1" connectable="0">
          <mxGeometry x="718" y="959" width="63" height="185" as="geometry" />
        </mxCell>
        <mxCell id="__aHNvYmwDtLGaGKwfHc-267" value="" style="shape=cube;whiteSpace=wrap;html=1;boundedLbl=1;backgroundOutline=1;darkOpacity=0.05;darkOpacity2=0.1;size=10;fillColor=#d5e8d4;strokeColor=#82b366;movable=0;resizable=0;rotatable=0;deletable=0;editable=0;locked=1;connectable=0;" parent="__aHNvYmwDtLGaGKwfHc-266" vertex="1">
          <mxGeometry width="59" height="170" as="geometry" />
        </mxCell>
        <mxCell id="__aHNvYmwDtLGaGKwfHc-268" value="&lt;span style=&quot;font-family: Arial; font-size: 18px;&quot;&gt;CBAM (C=64)&lt;/span&gt;" style="text;html=1;align=center;verticalAlign=middle;whiteSpace=wrap;rounded=0;rotation=-90;movable=0;resizable=0;rotatable=0;deletable=0;editable=0;locked=1;connectable=0;" parent="__aHNvYmwDtLGaGKwfHc-266" vertex="1">
          <mxGeometry x="-47" y="65" width="160" height="50" as="geometry" />
        </mxCell>
        <mxCell id="__aHNvYmwDtLGaGKwfHc-260" value="" style="group;movable=0;resizable=0;rotatable=0;deletable=0;editable=0;locked=1;connectable=0;" parent="1" vertex="1" connectable="0">
          <mxGeometry x="908" y="934" width="49" height="232" as="geometry" />
        </mxCell>
        <mxCell id="__aHNvYmwDtLGaGKwfHc-257" value="" style="shape=cube;whiteSpace=wrap;html=1;boundedLbl=1;backgroundOutline=1;darkOpacity=0.05;darkOpacity2=0.1;movable=0;resizable=0;rotatable=0;deletable=0;editable=0;locked=1;connectable=0;fillColor=#e1d5e7;strokeColor=#9673a6;" parent="__aHNvYmwDtLGaGKwfHc-260" vertex="1">
          <mxGeometry width="49" height="231" as="geometry" />
        </mxCell>
        <mxCell id="__aHNvYmwDtLGaGKwfHc-258" value="&lt;span style=&quot;font-family: Arial; font-size: 18px;&quot;&gt;SPPFire (256→256)&lt;/span&gt;" style="text;html=1;align=center;verticalAlign=middle;whiteSpace=wrap;rounded=0;rotation=-90;movable=0;resizable=0;rotatable=0;deletable=0;editable=0;locked=1;connectable=0;" parent="__aHNvYmwDtLGaGKwfHc-260" vertex="1">
          <mxGeometry x="-68" y="115" width="208" height="26" as="geometry" />
        </mxCell>
        <mxCell id="__aHNvYmwDtLGaGKwfHc-263" value="" style="group;movable=0;resizable=0;rotatable=0;deletable=0;editable=0;locked=1;connectable=0;" parent="1" vertex="1" connectable="0">
          <mxGeometry x="651" y="927" width="71" height="231" as="geometry" />
        </mxCell>
        <mxCell id="__aHNvYmwDtLGaGKwfHc-264" value="" style="shape=cube;whiteSpace=wrap;html=1;boundedLbl=1;backgroundOutline=1;darkOpacity=0.05;darkOpacity2=0.1;fillColor=#dae8fc;strokeColor=#6c8ebf;movable=0;resizable=0;rotatable=0;deletable=0;editable=0;locked=1;connectable=0;" parent="__aHNvYmwDtLGaGKwfHc-263" vertex="1">
          <mxGeometry width="70" height="230" as="geometry" />
        </mxCell>
        <mxCell id="__aHNvYmwDtLGaGKwfHc-265" value="&lt;span style=&quot;font-family: Arial; font-size: 18px;&quot;&gt;GhostConv&lt;/span&gt;&lt;div style=&quot;padding: 0px; margin: 0px; font-family: Arial; font-size: 18px;&quot;&gt;(128×0.5=64,&amp;nbsp;k=3, s=1)&lt;/div&gt;" style="text;html=1;align=center;verticalAlign=middle;whiteSpace=wrap;rounded=0;rotation=-90;movable=0;resizable=0;rotatable=0;deletable=0;editable=0;locked=1;connectable=0;" parent="__aHNvYmwDtLGaGKwfHc-263" vertex="1">
          <mxGeometry x="-59" y="101" width="210" height="50" as="geometry" />
        </mxCell>
        <mxCell id="__aHNvYmwDtLGaGKwfHc-269" value="" style="group;movable=0;resizable=0;rotatable=0;deletable=0;editable=0;locked=1;connectable=0;" parent="1" vertex="1" connectable="0">
          <mxGeometry x="848" y="933" width="83" height="236" as="geometry" />
        </mxCell>
        <mxCell id="__aHNvYmwDtLGaGKwfHc-270" value="" style="shape=cube;whiteSpace=wrap;html=1;boundedLbl=1;backgroundOutline=1;darkOpacity=0.05;darkOpacity2=0.1;fillColor=#dae8fc;strokeColor=#6c8ebf;movable=0;resizable=0;rotatable=0;deletable=0;editable=0;locked=1;connectable=0;" parent="__aHNvYmwDtLGaGKwfHc-269" vertex="1">
          <mxGeometry width="70" height="230" as="geometry" />
        </mxCell>
        <mxCell id="__aHNvYmwDtLGaGKwfHc-271" value="&lt;span style=&quot;font-family: Arial; font-size: 18px;&quot;&gt;GhostConv&lt;/span&gt;&lt;br style=&quot;padding: 0px; margin: 0px; font-family: Arial; font-size: 18px;&quot;&gt;&lt;span style=&quot;font-family: Arial; font-size: 18px;&quot;&gt;(512×0.5=256, k=3, s=2)&lt;/span&gt;" style="text;html=1;align=center;verticalAlign=middle;whiteSpace=wrap;rounded=0;rotation=-90;movable=0;resizable=0;rotatable=0;deletable=0;editable=0;locked=1;connectable=0;" parent="__aHNvYmwDtLGaGKwfHc-269" vertex="1">
          <mxGeometry x="-59" y="101" width="210" height="50" as="geometry" />
        </mxCell>
        <mxCell id="__aHNvYmwDtLGaGKwfHc-259" value="" style="group;movable=0;resizable=0;rotatable=0;deletable=0;editable=0;locked=1;connectable=0;" parent="1" vertex="1" connectable="0">
          <mxGeometry x="480" y="920" width="49" height="231" as="geometry" />
        </mxCell>
        <mxCell id="__aHNvYmwDtLGaGKwfHc-239" value="" style="shape=cube;whiteSpace=wrap;html=1;boundedLbl=1;backgroundOutline=1;darkOpacity=0.05;darkOpacity2=0.1;movable=0;resizable=0;rotatable=0;deletable=0;editable=0;locked=1;connectable=0;fillColor=#e1d5e7;strokeColor=#9673a6;" parent="__aHNvYmwDtLGaGKwfHc-259" vertex="1">
          <mxGeometry x="-5" width="49" height="231" as="geometry" />
        </mxCell>
        <mxCell id="__aHNvYmwDtLGaGKwfHc-240" value="&lt;span style=&quot;font-family: Arial; font-size: 18px;&quot;&gt;SPPFire (64→64)&lt;/span&gt;" style="text;html=1;align=center;verticalAlign=middle;whiteSpace=wrap;rounded=0;rotation=-90;movable=0;resizable=0;rotatable=0;deletable=0;editable=0;locked=1;connectable=0;" parent="__aHNvYmwDtLGaGKwfHc-259" vertex="1">
          <mxGeometry x="-74.25" y="110.75" width="208" height="26.5" as="geometry" />
        </mxCell>
        <mxCell id="__aHNvYmwDtLGaGKwfHc-236" value="" style="group;movable=0;resizable=0;rotatable=0;deletable=0;editable=0;locked=1;connectable=0;" parent="1" vertex="1" connectable="0">
          <mxGeometry x="426" y="962" width="59" height="170" as="geometry" />
        </mxCell>
        <mxCell id="__aHNvYmwDtLGaGKwfHc-237" value="" style="shape=cube;whiteSpace=wrap;html=1;boundedLbl=1;backgroundOutline=1;darkOpacity=0.05;darkOpacity2=0.1;size=10;fillColor=#d5e8d4;strokeColor=#82b366;movable=0;resizable=0;rotatable=0;deletable=0;editable=0;locked=1;connectable=0;" parent="__aHNvYmwDtLGaGKwfHc-236" vertex="1">
          <mxGeometry width="59" height="170" as="geometry" />
        </mxCell>
        <mxCell id="__aHNvYmwDtLGaGKwfHc-238" value="&lt;span style=&quot;font-family: Arial; font-size: 18px;&quot;&gt;CBAM (C=64)&lt;/span&gt;" style="text;html=1;align=center;verticalAlign=middle;whiteSpace=wrap;rounded=0;rotation=-90;movable=0;resizable=0;rotatable=0;deletable=0;editable=0;locked=1;connectable=0;" parent="__aHNvYmwDtLGaGKwfHc-236" vertex="1">
          <mxGeometry x="-47" y="65" width="160" height="50" as="geometry" />
        </mxCell>
        <mxCell id="__aHNvYmwDtLGaGKwfHc-220" value="" style="group;movable=0;resizable=0;rotatable=0;deletable=0;editable=0;locked=1;connectable=0;" parent="1" vertex="1" connectable="0">
          <mxGeometry x="375" y="945" width="55.01" height="199" as="geometry" />
        </mxCell>
        <mxCell id="__aHNvYmwDtLGaGKwfHc-221" value="" style="shape=cube;whiteSpace=wrap;html=1;boundedLbl=1;backgroundOutline=1;darkOpacity=0.05;darkOpacity2=0.1;fillColor=#b1ddf0;size=10;strokeColor=#10739e;movable=0;resizable=0;rotatable=0;deletable=0;editable=0;locked=1;connectable=0;" parent="__aHNvYmwDtLGaGKwfHc-220" vertex="1">
          <mxGeometry width="54.004908644668554" height="199" as="geometry" />
        </mxCell>
        <mxCell id="__aHNvYmwDtLGaGKwfHc-222" value="&lt;span style=&quot;font-family: Arial; font-size: 18px;&quot;&gt;C3Ghost×3 (128×0.5=64)&lt;/span&gt;" style="text;html=1;align=center;verticalAlign=middle;whiteSpace=wrap;rounded=0;rotation=-90;movable=0;resizable=0;rotatable=0;deletable=0;editable=0;locked=1;connectable=0;" parent="__aHNvYmwDtLGaGKwfHc-220" vertex="1">
          <mxGeometry x="-48.62441959821813" y="81.12566666666666" width="162.01472593400567" height="50.02638888888889" as="geometry" />
        </mxCell>
        <mxCell id="__aHNvYmwDtLGaGKwfHc-224" value="" style="group;movable=0;resizable=0;rotatable=0;deletable=0;editable=0;locked=1;connectable=0;" parent="1" vertex="1" connectable="0">
          <mxGeometry x="307" y="922" width="70" height="230" as="geometry" />
        </mxCell>
        <mxCell id="__aHNvYmwDtLGaGKwfHc-225" value="" style="shape=cube;whiteSpace=wrap;html=1;boundedLbl=1;backgroundOutline=1;darkOpacity=0.05;darkOpacity2=0.1;fillColor=#dae8fc;strokeColor=#6c8ebf;movable=0;resizable=0;rotatable=0;deletable=0;editable=0;locked=1;connectable=0;" parent="__aHNvYmwDtLGaGKwfHc-224" vertex="1">
          <mxGeometry width="70" height="230" as="geometry" />
        </mxCell>
        <mxCell id="__aHNvYmwDtLGaGKwfHc-226" value="&lt;span style=&quot;font-family: Arial; font-size: 18px;&quot;&gt;GhostConv&lt;/span&gt;&lt;div style=&quot;padding: 0px; margin: 0px; font-family: Arial; font-size: 18px;&quot;&gt;(128×0.5=64, k=3, s=2)&lt;/div&gt;" style="text;html=1;align=center;verticalAlign=middle;whiteSpace=wrap;rounded=0;rotation=-90;movable=0;resizable=0;rotatable=0;deletable=0;editable=0;locked=1;connectable=0;" parent="__aHNvYmwDtLGaGKwfHc-224" vertex="1">
          <mxGeometry x="-54.5" y="101.5" width="199" height="50" as="geometry" />
        </mxCell>
        <mxCell id="__aHNvYmwDtLGaGKwfHc-227" value="" style="whiteSpace=wrap;html=1;aspect=fixed;fontColor=#333333;strokeColor=#333333;fillColor=#4D4D4D;movable=0;resizable=0;rotatable=0;deletable=0;editable=0;locked=1;connectable=0;" parent="1" vertex="1">
          <mxGeometry x="22" y="973" width="80" height="80" as="geometry" />
        </mxCell>
        <mxCell id="__aHNvYmwDtLGaGKwfHc-228" value="" style="whiteSpace=wrap;html=1;aspect=fixed;fillColor=#666666;movable=0;resizable=0;rotatable=0;deletable=0;editable=0;locked=1;connectable=0;" parent="1" vertex="1">
          <mxGeometry x="41" y="989" width="80" height="80" as="geometry" />
        </mxCell>
        <mxCell id="__aHNvYmwDtLGaGKwfHc-229" value="&lt;font style=&quot;font-size: 18px;&quot;&gt;Input&lt;/font&gt;&lt;div style=&quot;font-size: 18px;&quot;&gt;&lt;font style=&quot;font-size: 18px;&quot;&gt;(640, 640, 3)&lt;/font&gt;&lt;/div&gt;" style="text;html=1;align=center;verticalAlign=middle;whiteSpace=wrap;rounded=0;movable=0;resizable=0;rotatable=0;deletable=0;editable=0;locked=1;connectable=0;" parent="1" vertex="1">
          <mxGeometry x="1" y="923" width="121" height="50" as="geometry" />
        </mxCell>
        <mxCell id="__aHNvYmwDtLGaGKwfHc-231" style="rounded=0;orthogonalLoop=1;jettySize=auto;html=1;entryX=0;entryY=0;entryDx=0;entryDy=105;entryPerimeter=0;strokeWidth=2;movable=0;resizable=0;rotatable=0;deletable=0;editable=0;locked=1;connectable=0;" parent="1" source="__aHNvYmwDtLGaGKwfHc-228" target="__aHNvYmwDtLGaGKwfHc-230" edge="1">
          <mxGeometry relative="1" as="geometry" />
        </mxCell>
        <mxCell id="__aHNvYmwDtLGaGKwfHc-233" value="" style="group;movable=0;resizable=0;rotatable=0;deletable=0;editable=0;locked=1;connectable=0;" parent="1" vertex="1" connectable="0">
          <mxGeometry x="263" y="962" width="59" height="170" as="geometry" />
        </mxCell>
        <mxCell id="__aHNvYmwDtLGaGKwfHc-234" value="" style="shape=cube;whiteSpace=wrap;html=1;boundedLbl=1;backgroundOutline=1;darkOpacity=0.05;darkOpacity2=0.1;size=10;fillColor=#d5e8d4;strokeColor=#82b366;movable=0;resizable=0;rotatable=0;deletable=0;editable=0;locked=1;connectable=0;" parent="__aHNvYmwDtLGaGKwfHc-233" vertex="1">
          <mxGeometry width="59" height="170" as="geometry" />
        </mxCell>
        <mxCell id="__aHNvYmwDtLGaGKwfHc-235" value="&lt;span style=&quot;font-family: Arial; font-size: 18px;&quot;&gt;CBAM (C=32)&lt;/span&gt;" style="text;html=1;align=center;verticalAlign=middle;whiteSpace=wrap;rounded=0;rotation=-90;movable=0;resizable=0;rotatable=0;deletable=0;editable=0;locked=1;connectable=0;" parent="__aHNvYmwDtLGaGKwfHc-233" vertex="1">
          <mxGeometry x="-47" y="65" width="160" height="50" as="geometry" />
        </mxCell>
        <mxCell id="__aHNvYmwDtLGaGKwfHc-248" value="" style="group;movable=0;resizable=0;rotatable=0;deletable=0;editable=0;locked=1;connectable=0;" parent="1" vertex="1" connectable="0">
          <mxGeometry x="195" y="924" width="70" height="230" as="geometry" />
        </mxCell>
        <mxCell id="__aHNvYmwDtLGaGKwfHc-230" value="" style="shape=cube;whiteSpace=wrap;html=1;boundedLbl=1;backgroundOutline=1;darkOpacity=0.05;darkOpacity2=0.1;fillColor=#dae8fc;strokeColor=#6c8ebf;movable=0;resizable=0;rotatable=0;deletable=0;editable=0;locked=1;connectable=0;" parent="__aHNvYmwDtLGaGKwfHc-248" vertex="1">
          <mxGeometry width="70" height="230" as="geometry" />
        </mxCell>
        <mxCell id="__aHNvYmwDtLGaGKwfHc-232" value="&lt;span style=&quot;font-family: Arial; font-size: 18px;&quot;&gt;GhostConv&lt;/span&gt;&lt;br style=&quot;padding: 0px; margin: 0px; font-family: Arial; font-size: 18px;&quot;&gt;&lt;span style=&quot;font-family: Arial; font-size: 18px;&quot;&gt;(64×0.5=32, k=3, s=2)&lt;/span&gt;" style="text;html=1;align=center;verticalAlign=middle;whiteSpace=wrap;rounded=0;rotation=-90;movable=0;resizable=0;rotatable=0;deletable=0;editable=0;locked=1;connectable=0;" parent="__aHNvYmwDtLGaGKwfHc-248" vertex="1">
          <mxGeometry x="-50" y="96" width="186" height="50" as="geometry" />
        </mxCell>
        <mxCell id="__aHNvYmwDtLGaGKwfHc-251" style="rounded=0;orthogonalLoop=1;jettySize=auto;html=1;entryX=0;entryY=0;entryDx=0;entryDy=105;entryPerimeter=0;strokeWidth=2;movable=0;resizable=0;rotatable=0;deletable=0;editable=0;locked=1;connectable=0;" parent="1" edge="1">
          <mxGeometry relative="1" as="geometry">
            <mxPoint x="524" y="1035" as="sourcePoint" />
            <mxPoint x="595" y="1035" as="targetPoint" />
          </mxGeometry>
        </mxCell>
        <mxCell id="__aHNvYmwDtLGaGKwfHc-262" value="" style="group;movable=0;resizable=0;rotatable=0;deletable=0;editable=0;locked=1;connectable=0;" parent="1" vertex="1" connectable="0">
          <mxGeometry x="593" y="927" width="71" height="231" as="geometry" />
        </mxCell>
        <mxCell id="__aHNvYmwDtLGaGKwfHc-249" value="" style="shape=cube;whiteSpace=wrap;html=1;boundedLbl=1;backgroundOutline=1;darkOpacity=0.05;darkOpacity2=0.1;fillColor=#dae8fc;strokeColor=#6c8ebf;movable=0;resizable=0;rotatable=0;deletable=0;editable=0;locked=1;connectable=0;" parent="__aHNvYmwDtLGaGKwfHc-262" vertex="1">
          <mxGeometry width="70" height="230" as="geometry" />
        </mxCell>
        <mxCell id="__aHNvYmwDtLGaGKwfHc-253" value="&lt;span style=&quot;font-family: Arial; font-size: 18px;&quot;&gt;GhostConv&lt;/span&gt;&lt;div style=&quot;padding: 0px; margin: 0px; font-family: Arial; font-size: 18px;&quot;&gt;(256×0.5=128,&amp;nbsp;k=3, s=2)&lt;/div&gt;" style="text;html=1;align=center;verticalAlign=middle;whiteSpace=wrap;rounded=0;rotation=-90;movable=0;resizable=0;rotatable=0;deletable=0;editable=0;locked=1;connectable=0;" parent="__aHNvYmwDtLGaGKwfHc-262" vertex="1">
          <mxGeometry x="-59" y="101" width="210" height="50" as="geometry" />
        </mxCell>
        <mxCell id="__aHNvYmwDtLGaGKwfHc-287" style="rounded=0;orthogonalLoop=1;jettySize=auto;html=1;entryX=0;entryY=0;entryDx=0;entryDy=105;entryPerimeter=0;strokeWidth=2;movable=0;resizable=0;rotatable=0;deletable=0;editable=0;locked=1;connectable=0;" parent="1" edge="1">
          <mxGeometry relative="1" as="geometry">
            <mxPoint x="778" y="1037" as="sourcePoint" />
            <mxPoint x="849" y="1037" as="targetPoint" />
          </mxGeometry>
        </mxCell>
        <mxCell id="__aHNvYmwDtLGaGKwfHc-289" value="" style="group;movable=0;resizable=0;rotatable=0;deletable=0;editable=0;locked=1;connectable=0;" parent="1" vertex="1" connectable="0">
          <mxGeometry x="1142" y="962" width="59" height="170" as="geometry" />
        </mxCell>
        <mxCell id="__aHNvYmwDtLGaGKwfHc-283" value="" style="shape=cube;whiteSpace=wrap;html=1;boundedLbl=1;backgroundOutline=1;darkOpacity=0.05;darkOpacity2=0.1;size=10;fillColor=#eeeeee;strokeColor=#36393d;movable=0;resizable=0;rotatable=0;deletable=0;editable=0;locked=1;connectable=0;" parent="__aHNvYmwDtLGaGKwfHc-289" vertex="1">
          <mxGeometry width="59" height="170" as="geometry" />
        </mxCell>
        <mxCell id="__aHNvYmwDtLGaGKwfHc-284" value="&lt;span style=&quot;font-family: Arial; font-size: 18px;&quot;&gt;Detect&lt;/span&gt;&lt;br style=&quot;padding: 0px; margin: 0px; font-family: Arial; font-size: 18px;&quot;&gt;&lt;span style=&quot;font-family: Arial; font-size: 18px;&quot;&gt;Anchors:4 scales&lt;/span&gt;" style="text;html=1;align=center;verticalAlign=middle;whiteSpace=wrap;rounded=0;rotation=-90;movable=0;resizable=0;rotatable=0;deletable=0;editable=0;locked=1;connectable=0;" parent="__aHNvYmwDtLGaGKwfHc-289" vertex="1">
          <mxGeometry x="-47" y="65" width="160" height="50" as="geometry" />
        </mxCell>
        <mxCell id="__aHNvYmwDtLGaGKwfHc-291" style="rounded=0;orthogonalLoop=1;jettySize=auto;html=1;entryX=0;entryY=0;entryDx=0;entryDy=105;entryPerimeter=0;strokeWidth=2;movable=0;resizable=0;rotatable=0;deletable=0;editable=0;locked=1;connectable=0;" parent="1" edge="1">
          <mxGeometry relative="1" as="geometry">
            <mxPoint x="1073" y="1044" as="sourcePoint" />
            <mxPoint x="1144" y="1044" as="targetPoint" />
          </mxGeometry>
        </mxCell>
        <mxCell id="__aHNvYmwDtLGaGKwfHc-293" style="edgeStyle=orthogonalEdgeStyle;shape=connector;rounded=0;orthogonalLoop=1;jettySize=auto;html=1;exitX=0;exitY=0;exitDx=14.5;exitDy=0;exitPerimeter=0;entryX=0;entryY=0;entryDx=24.5;entryDy=0;entryPerimeter=0;strokeColor=default;strokeWidth=2;align=center;verticalAlign=middle;fontFamily=Helvetica;fontSize=12;fontColor=default;labelBackgroundColor=default;resizable=0;endArrow=classic;movable=0;rotatable=0;deletable=0;editable=0;locked=1;connectable=0;" parent="1" source="__aHNvYmwDtLGaGKwfHc-239" target="__aHNvYmwDtLGaGKwfHc-283" edge="1">
          <mxGeometry relative="1" as="geometry" />
        </mxCell>
        <mxCell id="__aHNvYmwDtLGaGKwfHc-295" style="edgeStyle=orthogonalEdgeStyle;shape=connector;rounded=0;orthogonalLoop=1;jettySize=auto;html=1;exitX=0;exitY=0.5;exitDx=0;exitDy=0;entryX=0;entryY=0.5;entryDx=0;entryDy=0;strokeColor=default;strokeWidth=2;align=center;verticalAlign=middle;fontFamily=Helvetica;fontSize=12;fontColor=default;labelBackgroundColor=default;resizable=0;endArrow=classic;movable=0;rotatable=0;deletable=0;editable=0;locked=1;connectable=0;" parent="1" source="__aHNvYmwDtLGaGKwfHc-268" target="__aHNvYmwDtLGaGKwfHc-284" edge="1">
          <mxGeometry relative="1" as="geometry">
            <Array as="points">
              <mxPoint x="751" y="1180" />
              <mxPoint x="1175" y="1180" />
            </Array>
          </mxGeometry>
        </mxCell>
        <mxCell id="CbAVGInPBh6VHl-v0pwq-2" value="" style="group;movable=0;resizable=0;rotatable=0;deletable=0;editable=0;locked=1;connectable=0;" parent="1" vertex="1" connectable="0">
          <mxGeometry x="760" y="1225" width="409.32000000000005" height="92" as="geometry" />
        </mxCell>
        <mxCell id="OoG5j4ZZNjO9N3RT5ALd-121" value="&lt;div&gt;&lt;br&gt;&lt;/div&gt;" style="rounded=0;whiteSpace=wrap;html=1;dashed=1;movable=0;resizable=0;rotatable=0;deletable=0;editable=0;locked=1;connectable=0;" parent="CbAVGInPBh6VHl-v0pwq-2" vertex="1">
          <mxGeometry x="1.32000000000005" width="408" height="92" as="geometry" />
        </mxCell>
        <mxCell id="CbAVGInPBh6VHl-v0pwq-1" value="&lt;div style=&quot;text-align: left; font-size: 18px;&quot;&gt;&lt;span style=&quot;background-color: initial;&quot;&gt;&lt;font face=&quot;Arial&quot; style=&quot;font-size: 18px;&quot;&gt;C: represents number of input channels&lt;/font&gt;&lt;/span&gt;&lt;/div&gt;&lt;div style=&quot;text-align: left; font-size: 18px;&quot;&gt;&lt;font face=&quot;Arial&quot;&gt;&lt;font style=&quot;font-size: 18px;&quot;&gt;S: represent th&lt;/font&gt;&lt;font style=&quot;font-size: 18px;&quot;&gt;e &lt;/font&gt;&lt;/font&gt;&lt;font face=&quot;Arial&quot; style=&quot;font-size: 18px;&quot;&gt;stride size&lt;/font&gt;&lt;/div&gt;&lt;div style=&quot;text-align: left;&quot;&gt;&lt;font style=&quot;font-size: 18px; background-color: transparent; color: light-dark(rgb(0, 0, 0), rgb(255, 255, 255)); text-align: center;&quot; face=&quot;Arial&quot;&gt;N&lt;/font&gt;&lt;span style=&quot;font-size: 18px; background-color: transparent; color: light-dark(rgb(0, 0, 0), rgb(255, 255, 255)); text-align: center; font-family: Arial;&quot;&gt;×W&lt;/span&gt;&lt;span style=&quot;font-size: 18px; background-color: transparent; color: light-dark(rgb(0, 0, 0), rgb(255, 255, 255)); text-align: center; font-family: Arial;&quot;&gt;: represents&amp;nbsp;&lt;/span&gt;&lt;span style=&quot;background-color: transparent; text-align: center; font-size: 18px;&quot;&gt;&lt;font face=&quot;Arial&quot;&gt;Original channel × width factor&lt;/font&gt;&lt;/span&gt;&lt;/div&gt;&lt;div style=&quot;text-align: left;&quot;&gt;&lt;font style=&quot;font-family: Arial; font-size: 18px; background-color: transparent; color: light-dark(rgb(0, 0, 0), rgb(255, 255, 255)); text-align: center;&quot;&gt;K: represents the size of the convolution kerne&lt;/font&gt;&lt;font style=&quot;font-family: Arial; font-size: 18px; background-color: transparent; color: light-dark(rgb(0, 0, 0), rgb(255, 255, 255)); text-align: center;&quot;&gt;l&lt;/font&gt;&lt;/div&gt;" style="text;html=1;align=center;verticalAlign=middle;whiteSpace=wrap;rounded=0;movable=0;resizable=0;rotatable=0;deletable=0;editable=0;locked=1;connectable=0;" parent="CbAVGInPBh6VHl-v0pwq-2" vertex="1">
          <mxGeometry y="2.7899999999999636" width="405.32" height="87.53" as="geometry" />
        </mxCell>
      </root>
    </mxGraphModel>
  </diagram>
</mxfile>
